<svg version="1.2" xmlns="http://www.w3.org/2000/svg" viewBox="0 0 640 512" width="640" height="512"><style>.a{fill:#c9cbea}.b{fill:#000080}</style><path class="a" d="m119.4 272c5.4 9.4 8.6 20.3 8.6 32 0 0.7 0 1.5 0 2.2 0 0.7-0.1 1.4-0.1 2.2-0.1 1.4-0.2 2.9-0.4 4.3-0.4 2.8-0.9 5.6-1.7 8.2-1.5 5.4-3.6 10.5-6.3 15.2h76.1c14.6 64.1 71.9 112 140.4 112 40.8 0 77.7-17 103.9-44.3l72.1 43.1c0.4-23.6 13.6-44.1 32.9-54.9l-72-43.2c4.6-14.1 7.1-29.2 7.1-44.8 0-20.3-4.2-39.7-11.8-57.2l82-60.2c-20.5-9-35.3-28.5-37.8-51.6l-82.1 60.2c-25.3-21.9-58.2-35.2-94.3-35.2-10.4 0-20.6 1.1-30.4 3.2l-29.2-62.5c-11.5 16.5-30.7 27.3-52.4 27.3-0.9 0-1.9 0-2.8-0.1-0.9 0-1.9-0.1-2.8-0.2l29.2 62.5c-25.8 20.2-44.6 48.8-52 81.8h-76.1zm264.6 32c0 12.7-5.1 24.9-14.1 33.9-9 9-21.2 14.1-33.9 14.1-12.7 0-24.9-5.1-33.9-14.1-9-9-14.1-21.2-14.1-33.9 0-12.7 5.1-24.9 14.1-33.9 9-9 21.2-14.1 33.9-14.1 12.7 0 24.9 5.1 33.9 14.1 9 9 14.1 21.2 14.1 33.9z"/><path class="b" d="m224 128c17 0 33.3-6.7 45.3-18.7 12-12 18.7-28.3 18.7-45.3 0-17-6.7-33.3-18.7-45.3-12-12-28.3-18.7-45.3-18.7-17 0-33.3 6.7-45.3 18.7-12 12-18.7 28.3-18.7 45.3 0 17 6.7 33.3 18.7 45.3 12 12 28.3 18.7 45.3 18.7zm352 64c17 0 33.3-6.7 45.3-18.7 12-12 18.7-28.3 18.7-45.3 0-17-6.7-33.3-18.7-45.3-12-12-28.3-18.7-45.3-18.7-17 0-33.3 6.7-45.3 18.7-12 12-18.7 28.3-18.7 45.3 0 17 6.7 33.3 18.7 45.3 12 12 28.3 18.7 45.3 18.7zm64 256c0-17-6.7-33.3-18.7-45.3-12-12-28.3-18.7-45.3-18.7-17 0-33.3 6.7-45.3 18.7-12 12-18.7 28.3-18.7 45.3 0 17 6.7 33.3 18.7 45.3 12 12 28.3 18.7 45.3 18.7 17 0 33.3-6.7 45.3-18.7 12-12 18.7-28.3 18.7-45.3zm-576-80c17 0 33.3-6.7 45.3-18.7 12-12 18.7-28.3 18.7-45.3 0-17-6.7-33.3-18.7-45.3-12-12-28.3-18.7-45.3-18.7-17 0-33.3 6.7-45.3 18.7-12 12-18.7 28.3-18.7 45.3 0 17 6.7 33.3 18.7 45.3 12 12 28.3 18.7 45.3 18.7z"/></svg>