<svg version="1.2" xmlns="http://www.w3.org/2000/svg" viewBox="0 0 448 512" width="448" height="512"><style>.a{fill:#c9cbea}.b{fill:#000080}</style><path class="a" d="m0 64c0 17.7 14.3 32 32 32h224c17.7 0 32-14.3 32-32 0-17.7-14.3-32-32-32h-224c-17.7 0-32 14.3-32 32zm0 256c0 17.7 14.3 32 32 32h224c17.7 0 32-14.3 32-32 0-17.7-14.3-32-32-32h-224c-17.7 0-32 14.3-32 32z"/><path class="b" d="m416 480c17.7 0 32-14.3 32-32 0-17.7-14.3-32-32-32h-384c-17.7 0-32 14.3-32 32 0 17.7 14.3 32 32 32zm0-256c17.7 0 32-14.3 32-32 0-17.7-14.3-32-32-32h-384c-17.7 0-32 14.3-32 32 0 17.7 14.3 32 32 32z"/></svg>