<svg version="1.2" xmlns="http://www.w3.org/2000/svg" viewBox="0 0 512 512" width="512" height="512"><style>.a{fill:#d7fec8}.b{fill:#006a43}</style><path class="a" d="m0 368v96c0 26.5 21.5 48 48 48h416c26.5 0 48-21.5 48-48v-96c0-26.5-21.5-48-48-48h-76.2c-12.1 0-23.2 6.8-28.6 17.7l-14.3 28.6c-5.4 10.8-16.5 17.7-28.6 17.7h-120.4c-12.1 0-23.2-6.8-28.6-17.7l-14.3-28.6c-5.4-10.8-16.5-17.7-28.6-17.7h-76.4c-26.5 0-48 21.5-48 48z"/><path class="b" d="m256 0c17.7 0 32 14.3 32 32v178.7l41.4-41.4c12.5-12.5 32.8-12.5 45.3 0 12.5 12.5 12.5 32.8 0 45.3l-96 96c-12.5 12.5-32.8 12.5-45.3 0l-96-96c-12.5-12.5-12.5-32.8 0-45.3 12.5-12.5 32.8-12.5 45.3 0l41.3 41.4v-178.7c0-17.7 14.3-32 32-32z"/></svg>