<svg width="32" height="32" viewBox="0 0 32 32" fill="none" xmlns="http://www.w3.org/2000/svg">
<path d="M28.6299 0.25H3.87988C2.0166 0.25 0.504883 1.76172 0.504883 3.625V28.375C0.504883 30.2383 2.0166 31.75 3.87988 31.75H28.6299C30.4932 31.75 32.0049 30.2383 32.0049 28.375V3.625C32.0049 1.76172 30.4932 0.25 28.6299 0.25ZM9.43457 25.0352C9.04785 25.7102 8.18301 25.9352 7.51504 25.5484C6.84004 25.1617 6.61504 24.2969 7.00176 23.6289L8.00723 21.8922C9.13926 21.5477 10.0674 21.8148 10.7916 22.6938L9.43457 25.0352ZM19.201 21.2453H6.41113C5.6377 21.2453 5.00488 20.6125 5.00488 19.8391C5.00488 19.0656 5.6377 18.4328 6.41113 18.4328H9.99707L14.5955 10.4734L13.1541 7.98438C12.7674 7.30937 12.9994 6.45156 13.6674 6.06484C14.3424 5.67812 15.2002 5.91016 15.5869 6.57812L16.2127 7.66094L16.8385 6.57812C17.2252 5.90312 18.09 5.67812 18.758 6.06484C19.433 6.45156 19.658 7.31641 19.2713 7.98438L13.2385 18.4328H17.6049C19.0252 18.4328 19.8197 20.0992 19.201 21.2453ZM26.0986 21.2453H24.0596L25.4377 23.6289C25.8244 24.3039 25.5924 25.1617 24.9244 25.5484C24.2494 25.9352 23.3916 25.7031 23.0049 25.0352C20.6916 21.0344 18.9619 18.025 17.8018 16.0281C16.6275 13.9891 17.4643 11.95 18.301 11.2609C19.2221 12.857 20.6002 15.2477 22.4424 18.4328H26.0986C26.8721 18.4328 27.5049 19.0656 27.5049 19.8391C27.5049 20.6195 26.8721 21.2453 26.0986 21.2453Z" fill="black"/>
</svg>
