<svg version="1.2" xmlns="http://www.w3.org/2000/svg" viewBox="0 0 48 48" width="48" height="48"><style>.a{fill:#006a43}.b{opacity:.3;fill:#c9cbea}</style><path fill-rule="evenodd" class="a" d="m46 24c0 12.2-9.8 22-22 22-12.2 0-22-9.8-22-22 0-12.2 9.8-22 22-22 12.2 0 22 9.8 22 22zm-22-19c-10.5 0-19 8.5-19 19 0 10.5 8.5 19 19 19 10.5 0 19-8.5 19-19 0-10.5-8.5-19-19-19zm12 19c0 6.6-5.4 12-12 12-6.6 0-12-5.4-12-12 0-6.6 5.4-12 12-12 6.6 0 12 5.4 12 12zm-12 10c5.5 0 10-4.5 10-10 0-5.5-4.5-10-10-10-5.5 0-10 4.5-10 10 0 5.5 4.5 10 10 10z"/><path fill-rule="evenodd" class="a" d="m15.8 42.2q-0.9-0.4-1.8-0.9l3.4-8.5q0.8 0.6 1.7 1.1zm14.5 0.7c-2 0.7-4.1 1-6.3 1-2.1 0-4.2-0.3-6.2-1zm-1.4-9.1q0.9-0.5 1.7-1.1l3.4 8.5q-0.8 0.6-1.8 1zm5-5l8.4 3.3q-0.4 0.9-0.9 1.8l-8.5-3.4q0.6-0.8 1-1.7zm-1-11.5l8.5-3.4q0.5 0.9 0.9 1.8l-8.4 3.3q-0.4-0.9-1-1.7zm-4-3.3l3.4-8.3q0.9 0.4 1.8 0.9l-3.4 8.5q-0.8-0.6-1.8-1.1zm1.4-9.1h-12.5c2-0.6 4.1-1 6.3-1 2.2 0 4.3 0.4 6.2 1zm-11.1 9.1q-0.9 0.5-1.7 1.1l-3.4-8.5q0.8-0.5 1.8-0.9zm-5 5l-8.4-3.4q0.4-0.9 0.9-1.8l8.5 3.4q-0.6 0.8-1 1.8zm-9.2-1.4v12.5c-0.6-2-1-4.1-1-6.3 0-2.2 0.4-4.3 1-6.2zm9.2 11.1q0.4 0.9 1 1.7l-8.5 3.4q-0.5-0.8-0.9-1.8zm29.9-4.8c0 2.2-0.4 4.3-1 6.2v-12.5c0.6 2 1 4.1 1 6.3z"/><path fill-rule="evenodd" class="b" d="m14.9 41.8l3.3-8.4c-1.4-0.9-2.7-2.2-3.6-3.6l-8.4 3.3c1.9 3.7 5 6.8 8.7 8.7zm-8.7-26.9l8.4 3.3c0.9-1.4 2.2-2.7 3.6-3.6l-3.3-8.4c-3.7 1.9-6.8 5-8.7 8.7zm27.2 14.9c-0.9 1.4-2.2 2.7-3.6 3.6l3.3 8.4c3.7-1.9 6.8-4.9 8.7-8.7zm8.4-15c-1.9-3.7-4.9-6.7-8.7-8.7l-3.4 8.5c1.5 0.9 2.7 2.1 3.7 3.6zm-8.7 27q-0.2 0.1-0.4 0.2 0.2-0.1 0.4-0.2zm8.7-27q0 0.1 0 0.1 0 0 0-0.1zm0 0.1q0.1 0.2 0.2 0.4-0.1-0.2-0.2-0.4z"/></svg>