<svg width="27" height="32" viewBox="0 0 27 32" fill="none" xmlns="http://www.w3.org/2000/svg">
<path d="M22.6532 16.893C22.6392 14.3125 23.8063 12.3648 26.1688 10.9305C24.847 9.03906 22.8501 7.99844 20.2134 7.79453C17.7173 7.59766 14.9892 9.25 13.9907 9.25C12.936 9.25 10.5173 7.86484 8.61885 7.86484C4.69541 7.92813 0.525879 10.9938 0.525879 17.2305C0.525879 19.0727 0.863379 20.9758 1.53838 22.9398C2.43838 25.5203 5.68682 31.8484 9.07588 31.743C10.8478 31.7008 12.0993 30.4844 14.4056 30.4844C16.6415 30.4844 17.8017 31.743 19.7774 31.743C23.1946 31.6938 26.1337 25.9422 26.9915 23.3547C22.4071 21.1961 22.6532 17.0266 22.6532 16.893ZM18.6735 5.34766C20.5931 3.06953 20.4173 0.995313 20.361 0.25C18.6665 0.348437 16.7048 1.40313 15.5868 2.70391C14.3563 4.09609 13.6321 5.81875 13.7868 7.75938C15.622 7.9 17.2954 6.95781 18.6735 5.34766Z" fill="#55679A"/>
</svg>
