<svg version="1.2" xmlns="http://www.w3.org/2000/svg" viewBox="0 0 448 512" width="448" height="512"><style>.a{fill:#d7fec8}.b{fill:#006a43}</style><path class="a" d="m0 384c0 8.2 3.1 16.4 9.4 22.6l96 96c6.2 6.2 14.4 9.4 22.6 9.4 8.2 0 16.4-3.1 22.6-9.4 12.5-12.5 12.5-32.8 0-45.3l-41.3-41.3h306.7c17.7 0 32-14.3 32-32 0-17.7-14.3-32-32-32h-306.7l41.4-41.4c12.5-12.5 12.5-32.8 0-45.3-6.2-6.2-14.4-9.4-22.6-9.4-8.2 0-16.4 3.1-22.6 9.4l-96 96c-6.4 6.3-9.5 14.5-9.5 22.7z"/><path class="b" d="m438.6 105.4c12.5 12.5 12.5 32.8 0 45.3l-96 96c-12.5 12.5-32.8 12.5-45.3 0-12.5-12.5-12.5-32.8 0-45.3l41.4-41.4h-306.7c-17.7 0-32-14.3-32-32 0-17.7 14.3-32 32-32h306.7l-41.3-41.4c-12.5-12.5-12.5-32.8 0-45.3 12.5-12.5 32.8-12.5 45.3 0l96 96z"/></svg>