<svg version="1.2" xmlns="http://www.w3.org/2000/svg" viewBox="0 0 512 512" width="512" height="512"><style>.a{fill:#d7fec8}.b{fill:#006a43}</style><path class="a" d="m0 288c0 0.7 0 1.3 0.1 2 0.8 12.2 8.4 22.9 19.6 27.6l112 46.7 28.3 11.7v-8c0-4.2 1.7-8.3 4.7-11.3l13-13c59.6-59.6 119.2-119.2 178.8-178.7 0.1-0.1 0.2-0.2 0.2-0.3 3-3 6.8-4.5 10.7-4.7 3.9-0.2 7.9 1.1 11 3.9 3.7 3.3 5.6 7.7 5.6 12.1 0 3.4-1.1 6.8-3.3 9.7l-156.7 203.7v13.2c20 8.3 40 16.7 60 25 39.9 16.6 79.8 33.2 119.7 49.9 9.1 3.8 19.4 3.2 28-1.6 8.6-4.8 14.5-13.3 16-23l64-416c1.9-12.1-3.4-24.3-13.5-31.2-5.5-3.8-11.8-5.7-18.2-5.7-5.5 0-10.9 1.4-15.9 4.2l-448 256c-10 5.7-16.1 16.4-16.1 27.8z"/><path class="b" d="m380.7 185.8c5.1-6.7 4.2-16.2-2.1-21.8-6.3-5.6-15.9-5.3-21.9 0.7l-179 179-13 13c-3 3-4.7 7.1-4.7 11.3v8 56 48c0 13.2 8.1 25 20.3 29.8 12.2 4.8 26.2 1.6 35.2-8.1l68.5-74-60-25v-13.2z"/></svg>