<svg version="1.2" xmlns="http://www.w3.org/2000/svg" viewBox="0 0 48 48" width="48" height="48"><style>.a{fill:#c9cbea}.b{opacity:.1;fill:#c9cbea}.c{fill:#006a43}</style><g style="opacity:.2"><path class="a" d="m29.7 24l14.3 13v-23z"/><path class="a" d="m4 37l14.3-13-14.3-10z"/></g><path class="b" d="m13.6 40h20.8c3.4 0 5 0 6.3-0.7 1.2-0.5 2.1-1.4 2.6-2.6l-0.3-0.7-13.3-12-2 1.4c-1.4 1-2 1.4-2.7 1.6q-1 0.2-2 0c-0.7-0.2-1.3-0.6-2.7-1.6l-2-1.4-13.3 12-0.3 0.7c0.5 1.2 1.4 2.1 2.6 2.6 1.3 0.7 2.9 0.7 6.3 0.7z"/><path fill-rule="evenodd" class="c" d="m38.5 6.1c1.1 0.1 2.2 0.3 3.1 0.8 1.5 0.7 2.8 2 3.5 3.5 0.5 0.9 0.7 2 0.8 3.1 0.1 1.1 0.1 2.4 0.1 4v13c0 1.6 0 2.9-0.1 4-0.1 1.1-0.3 2.2-0.8 3.1-0.7 1.5-2 2.8-3.5 3.5-0.9 0.5-2 0.7-3.1 0.8-1.1 0.1-2.4 0.1-4 0.1h-21c-1.6 0-2.9 0-4-0.1-1.1-0.1-2.2-0.3-3.1-0.8-1.5-0.7-2.8-2-3.5-3.5-0.5-0.9-0.7-2-0.8-3.1-0.1-1.1-0.1-2.4-0.1-4v-13c0-1.6 0-2.9 0.1-4 0.1-1.1 0.3-2.2 0.8-3.1 0.7-1.5 2-2.8 3.5-3.5 0.9-0.5 2-0.7 3.1-0.8 1.1-0.1 2.4-0.1 4-0.1h21c1.6 0 2.9 0 4 0.1zm-33.5 24.3c0 1.7 0 2.9 0.1 3.9 0.1 0.9 0.2 1.5 0.4 2 0.5 0.9 1.3 1.7 2.2 2.2 0.5 0.2 1.1 0.3 2 0.4 1 0.1 2.2 0.1 3.9 0.1h20.8c1.7 0 2.9 0 3.9-0.1 0.9-0.1 1.5-0.2 2-0.4 0.9-0.5 1.7-1.3 2.2-2.2 0.2-0.5 0.3-1.1 0.4-2 0.1-1 0.1-2.2 0.1-3.9 0-0.6 0-14 0-14.5l-14.8 10.4-0.1 0.1c-1.2 0.8-2 1.3-2.9 1.6q-1.2 0.3-2.4 0c-0.9-0.3-1.7-0.8-2.9-1.6l-0.1-0.1-14.8-10.4q0 0.8 0 1.7zm22.1-5.8l15.8-11.1c-0.1-0.8-0.2-1.3-0.4-1.8-0.5-0.9-1.3-1.7-2.2-2.2-0.5-0.2-1.1-0.3-2-0.4-1-0.1-2.2-0.1-3.9-0.1h-20.8c-1.7 0-2.9 0-3.9 0.1-0.9 0.1-1.5 0.2-2 0.4-0.9 0.5-1.7 1.3-2.2 2.2-0.2 0.5-0.3 1-0.4 1.8l15.8 11.1c1.4 1 1.9 1.3 2.4 1.4q0.7 0.2 1.4 0c0.5-0.1 1-0.4 2.4-1.4z"/></svg>