<svg version="1.2" xmlns="http://www.w3.org/2000/svg" viewBox="0 0 512 512" width="512" height="512"><style>.a{fill:#d7fec8}.b{fill:#006a43}</style><path class="a" d="m192 256c0 17 6.7 33.3 18.7 45.3 12 12 28.3 18.7 45.3 18.7 17 0 33.3-6.7 45.3-18.7 12-12 18.7-28.3 18.7-45.3 0-17-6.7-33.3-18.7-45.3-12-12-28.3-18.7-45.3-18.7-17 0-33.3 6.7-45.3 18.7-12 12-18.7 28.3-18.7 45.3z"/><path class="b" d="m489.6 191.2c6.9-6.2 9.6-15.9 6.4-24.6-4.4-11.9-9.7-23.3-15.8-34.3l-4.7-8.1c-6.6-11-14-21.4-22.1-31.2-5.9-7.2-15.7-9.6-24.5-6.8l-55.7 17.7c-13.4-10.3-28.2-18.9-44-25.5l-12.5-57.1c-2-9.1-9-16.3-18.2-17.8-13.8-2.3-28-3.5-42.5-3.5-14.5 0-28.7 1.2-42.5 3.5-9.2 1.5-16.2 8.7-18.2 17.8l-12.5 57.1c-15.8 6.5-30.6 15.1-44 25.4l-55.7-17.7c-8.8-2.8-18.6-0.3-24.5 6.8-8.1 9.8-15.5 20.2-22.1 31.2l-4.7 8.1c-6.1 11-11.4 22.4-15.8 34.3-3.2 8.7-0.5 18.4 6.4 24.6l43.3 39.4c-1.1 8.4-1.7 16.9-1.7 25.5 0 8.6 0.6 17.1 1.7 25.4l-43.3 39.4c-6.9 6.2-9.6 15.9-6.4 24.6 4.4 11.9 9.7 23.3 15.8 34.3l4.7 8.1c6.6 11 14 21.4 22.1 31.2 5.9 7.2 15.7 9.6 24.5 6.8l55.7-17.7c13.4 10.3 28.2 18.9 44 25.4l12.5 57.1c2 9.1 9 16.3 18.2 17.8 13.8 2.3 28 3.5 42.5 3.5 14.5 0 28.7-1.2 42.5-3.5 9.2-1.5 16.2-8.7 18.2-17.8l12.5-57.1c15.8-6.5 30.6-15.1 44-25.4l55.7 17.7c8.8 2.8 18.6 0.3 24.5-6.8 8.1-9.8 15.5-20.2 22.1-31.2l4.7-8.1c6.1-11 11.4-22.4 15.8-34.3 3.2-8.7 0.5-18.4-6.4-24.6l-43.3-39.4c1.1-8.3 1.7-16.8 1.7-25.4 0-8.6-0.6-17.1-1.7-25.4zm-233.6-31.2c25.5 0 49.9 10.1 67.9 28.1 18 18 28.1 42.4 28.1 67.9 0 25.5-10.1 49.9-28.1 67.9-18 18-42.4 28.1-67.9 28.1-25.5 0-49.9-10.1-67.9-28.1-18-18-28.1-42.4-28.1-67.9 0-25.5 10.1-49.9 28.1-67.9 18-18 42.4-28.1 67.9-28.1z"/></svg>