<svg version="1.2" xmlns="http://www.w3.org/2000/svg" viewBox="0 0 512 512" width="512" height="512"><style>.a{fill:#c1c8e9}.b{fill:#fff}</style><path class="a" d="m128 64c0-35.3 28.7-64 64-64h160v128c0 17.7 14.3 32 32 32h128v288c0 35.3-28.7 64-64 64h-256c-35.3 0-64-28.7-64-64v-112h174.1l-39 39c-9.4 9.4-9.4 24.6 0 33.9 4.7 4.7 10.8 7 17 7 6.2 0 12.3-2.3 17-7l80-80c9.4-9.4 9.4-24.6 0-33.9l-80-80c-9.4-9.4-24.6-9.4-33.9 0-9.3 9.4-9.4 24.6 0 33.9l39 39-174.2 0.1z"/><path class="b" d="m512 160l-160-160v128c0 17.7 14.3 32 32 32zm-215 55c-9.4-9.4-24.6-9.4-33.9 0-9.3 9.4-9.4 24.6 0 33.9l39 39-278.1 0.1c-13.3 0-24 10.7-24 24 0 13.3 10.7 24 24 24h278.1l-39 39c-9.4 9.4-9.4 24.6 0 33.9 9.4 9.3 24.6 9.4 33.9 0l80-80c9.4-9.4 9.4-24.6 0-33.9z"/></svg>