<svg width="42" height="23" viewBox="0 0 42 23" fill="none" xmlns="http://www.w3.org/2000/svg">
<path d="M30.3746 17.2295C30.0409 17.2295 29.7146 17.1305 29.4371 16.9451C29.1596 16.7596 28.9433 16.4961 28.8156 16.1877C28.6878 15.8794 28.6544 15.5401 28.7195 15.2127C28.7846 14.8854 28.9454 14.5847 29.1814 14.3487C29.4174 14.1127 29.7181 13.952 30.0454 13.8869C30.3727 13.8218 30.712 13.8552 31.0204 13.9829C31.3287 14.1106 31.5923 14.3269 31.7777 14.6044C31.9631 14.8819 32.0621 15.2082 32.0621 15.542C32.0621 15.9895 31.8843 16.4187 31.5679 16.7352C31.2514 17.0517 30.8222 17.2295 30.3746 17.2295ZM11.7348 17.2295C11.401 17.2295 11.0747 17.1305 10.7972 16.9451C10.5197 16.7596 10.3034 16.4961 10.1757 16.1877C10.048 15.8794 10.0146 15.5401 10.0797 15.2127C10.1448 14.8854 10.3055 14.5847 10.5415 14.3487C10.7775 14.1127 11.0782 13.952 11.4056 13.8869C11.7329 13.8218 12.0722 13.8552 12.3805 13.9829C12.6889 14.1106 12.9524 14.3269 13.1379 14.6044C13.3233 14.8819 13.4223 15.2082 13.4223 15.542C13.4223 15.9895 13.2445 16.4187 12.928 16.7352C12.6115 17.0517 12.1823 17.2295 11.7348 17.2295ZM30.9793 7.0707L34.3501 1.23476C34.4037 1.15484 34.4404 1.06475 34.4578 0.97009C34.4752 0.875426 34.4729 0.778197 34.4512 0.684426C34.4295 0.590656 34.3888 0.502339 34.3316 0.424948C34.2743 0.347557 34.2018 0.282739 34.1185 0.234508C34.0353 0.186278 33.9429 0.155662 33.8473 0.144557C33.7517 0.133453 33.6549 0.142095 33.5627 0.16995C33.4706 0.197805 33.3852 0.244279 33.3117 0.306494C33.2383 0.368709 33.1784 0.445339 33.1358 0.531638L29.7228 6.44281C26.9966 5.2201 24.0425 4.58798 21.0547 4.58798C18.0668 4.58798 15.1128 5.2201 12.3866 6.44281L8.97359 0.531638C8.93097 0.445339 8.87109 0.368709 8.79765 0.306494C8.72421 0.244279 8.63878 0.197805 8.54665 0.16995C8.45451 0.142095 8.35765 0.133453 8.26204 0.144557C8.16643 0.155662 8.07412 0.186278 7.99083 0.234508C7.90753 0.282739 7.83503 0.347557 7.7778 0.424948C7.72058 0.502339 7.67985 0.590656 7.65815 0.684426C7.63644 0.778197 7.63422 0.875426 7.65162 0.97009C7.66902 1.06475 7.70567 1.15484 7.7593 1.23476L11.1301 7.0707C5.34195 10.2186 1.38406 16.0777 0.804688 23H41.3047C40.7253 16.0777 36.7667 10.2186 30.9793 7.0707Z" fill="#3DDC84"/>
</svg>
